<?xml version="1.0" encoding="UTF-8"?>
<svg width="165px" height="193px" viewBox="0 0 165 193" version="1.1" xmlns="http://www.w3.org/2000/svg" xmlns:xlink="http://www.w3.org/1999/xlink">
    <!-- Generator: Sketch 61.2 (89653) - https://sketch.com -->
    <title>Group 2</title>
    <desc>Created with Sketch.</desc>
    <g id="Page-1" stroke="none" stroke-width="1" fill="none" fill-rule="evenodd">
        <g id="Dribble" transform="translate(-449.000000, -249.000000)">
            <g id="Group-2" transform="translate(426.000000, 249.000000)">
                <g id="Group" transform="translate(41.000000, 0.000000)">
                    <circle id="Oval" stroke="#000009" stroke-width="5" cx="62" cy="62" r="59.5"></circle>
                    <path d="M36.2090279,22.2999381 C36.5792582,36.5893109 36.5792582,63.2705079 36.2090279,102.343529 L31.4097644,100.410473 L31.4097644,65.9250872 L20.5625,65.9250872 C21.8239284,73.3969208 23.4180935,78.8911946 25.3449952,82.4079085 C19.9335735,85.5113092 24.3714648,83.2497548 19.8838623,85.1761135 C1.29316114,43.365219 32.2065643,23.8168406 36.2090279,22.2999381 Z M30.8686223,35.1893481 C23.7566033,40.5650451 20.2005938,48.6362539 20.2005938,59.4029748 C23.2618561,59.3705336 26.8178656,59.3705336 30.8686223,59.4029748 L30.8686223,35.1893481 Z" id="Combined-Shape" fill="#000009"></path>
                    <path d="M55.1040694,14.2640596 C67.0619629,13.1345524 73.7331553,15.2639576 75.1209616,16.7953005 C77.2365358,19.1296821 77.5106816,20.1880376 77.8416705,23.4836555 C77.8091294,46.9668718 77.7556162,43.5513648 77.6946943,56.8206584 C77.6881553,58.2449019 78.0975709,59.1061298 75.6677604,61.6433507 C74.0194936,62.5958507 74.8147611,61.9972103 76.3331422,63.4241445 C77.6704991,64.6809569 78.283554,66.6462421 78.1723069,69.32 C78.0861802,74.1576102 78.1023088,84.2195197 78.2206928,99.5057286 C77.87807,105.640638 74.4857229,108.803621 71.7340883,109.753342 C68.9824538,110.703063 60.0932274,110.749277 45.9998589,109.799556 C46.0200025,73.6002058 45.7015569,47.3153707 45.8317954,17.041003 C45.8325079,16.8753773 49.8058567,14.7645131 55.1040694,14.2640596 Z M52.0460499,65.9450116 L51.9827822,104.055214 C62.9307666,104.247742 68.9387797,104.292575 70.0068213,104.189713 C71.0748629,104.086852 71.7357594,103.399747 71.9895107,102.128399 C72.0432556,87.3182878 72.0608685,77.5259048 72.0423496,72.7512497 C71.9040706,68.1992495 70.6044258,66.2487136 68.2088183,66.1568662 C66.6117467,66.0956346 61.2241572,66.0250164 52.0460499,65.9450116 Z M70.0068213,20.9987397 C68.9387797,20.8958784 62.9307666,20.9407114 51.9827822,21.1332387 L51.9827822,21.1332387 L52.0460499,59.2434414 C61.2241572,59.1634366 66.6117467,59.0928184 68.2088183,59.0315868 C70.6044258,58.9397394 71.9040706,56.9892035 72.0423496,52.4372032 C72.0608685,47.6625481 72.0432556,37.8701651 71.9895107,23.0600542 C71.7357594,21.7887059 71.0748629,21.1016011 70.0068213,20.9987397 Z" id="Combined-Shape" fill="#000009"></path>
                    <path d="M92.8441254,34.1854574 L93.016632,89.8284153 C96.6172639,88.1392231 99.4399295,84.1992579 101.484629,78.0085195 C103.925623,78.2510193 105.966177,78.5022165 107.606293,78.7621112 C103.302096,89.0930239 96.619038,97.2272973 87.557118,103.164931 C87.6242038,86.1842136 87.5145237,58.7362327 87.2280776,20.8209887 C95.9292325,25.6461841 102.8279,33.7662345 107.92408,45.1811401 C103.469154,46.8832654 106.711392,45.4939711 101.46067,47.3901977 C98.9158059,40.1016388 96.0436245,35.7000587 92.8441254,34.1854574 Z" id="Path-5" fill="#000009"></path>
                    <polygon id="Path-6" fill="#000009" points="106.661531 71.3808532 106.877966 64.215352 109.97772 64.039617 104.978909 51.7234049 105.080483 60.0615128 101.561486 60.0638517"></polygon>
                </g>
                <g id="ABC-BANK-2" transform="translate(0.000000, 133.000000)"></g>
                <text id="ABC-&amp;-CO." font-family="SFUIDisplay-Medium, SF UI Display" font-size="36" font-weight="400" letter-spacing="-0.4" fill="#000000">
                    <tspan x="23" y="166">ABC &amp; CO. </tspan>
                </text>
                <text id="WE’RE-HERE-FOR-YOU" font-family="SFProText-Medium, SF Pro Text" font-size="14" font-weight="400" letter-spacing="-0.311111111" fill="#6B6B6B">
                    <tspan x="30" y="192">WE’RE HERE FOR YOU</tspan>
                </text>
            </g>
        </g>
    </g>
</svg>